<mxfile host="app.diagrams.net" modified="2024-04-12T09:24:12.442Z" agent="Mozilla/5.0 (Windows NT 10.0; Win64; x64; rv:124.0) Gecko/20100101 Firefox/124.0" version="24.2.3" etag="ox_iBEbFJrb4s9Dhoyaf" type="github">
  <diagram name="Page-1" id="ujVWv0oJLF8nUSBedQni">
    <mxGraphModel>
      <root>
        <mxCell id="0" />
        <mxCell id="1" parent="0" />
      </root>
    </mxGraphModel>
  </diagram>
</mxfile>
